<!DOCTYPE svg PUBLIC "-//W3C//DTD SVG 20010904//EN" "http://www.w3.org/TR/2001/REC-SVG-20010904/DTD/svg10.dtd">
<svg version="1.0" xmlns="http://www.w3.org/2000/svg" width="210px" height="210px" viewBox="0 0 2100 2100" preserveAspectRatio="xMidYMid meet">
<g id="layer101" fill="#000000" stroke="none">
 <path d="M352 2029 c-26 -13 -55 -39 -70 -62 l-27 -41 -3 -614 c-2 -611 -2 -615 19 -659 13 -27 37 -55 62 -71 38 -25 48 -27 178 -30 l138 -3 3 -188 c3 -184 3 -188 30 -228 16 -24 44 -49 70 -62 42 -20 60 -21 298 -21 238 0 256 1 298 21 26 13 54 38 70 62 27 40 27 44 30 228 l3 188 138 3 c130 3 140 5 178 30 25 16 49 44 62 71 21 44 21 48 19 659 l-3 614 -27 41 c-16 24 -44 49 -70 62 -44 21 -52 21 -699 21 -649 0 -654 0 -697 -21z m1293 -729 l0 -545 -595 0 -595 0 -3 535 c-1 294 0 541 3 548 3 10 128 12 597 10 l593 -3 0 -545z m-397 -897 l-3 -148 -195 0 -195 0 -3 148 -3 147 201 0 201 0 -3 -147z"/>
 </g>

</svg>