<!DOCTYPE svg PUBLIC "-//W3C//DTD SVG 20010904//EN" "http://www.w3.org/TR/2001/REC-SVG-20010904/DTD/svg10.dtd">
<svg version="1.0" xmlns="http://www.w3.org/2000/svg" width="210px" height="210px" viewBox="0 0 2100 2100" preserveAspectRatio="xMidYMid meet">
<g id="layer101" fill="#000000" stroke="none">
 <path d="M178 1922 c-53 -54 -58 -63 -58 -103 l0 -43 362 -363 363 -363 -363 -363 -362 -363 0 -43 c0 -40 5 -49 58 -103 54 -53 63 -58 103 -58 l43 0 363 362 363 363 363 -363 363 -362 43 0 c40 0 49 5 103 58 53 54 58 63 58 103 l0 43 -362 363 -363 363 363 363 362 363 0 43 c0 40 -5 49 -58 103 -54 53 -63 58 -103 58 l-43 0 -363 -362 -363 -363 -363 363 -363 362 -43 0 c-40 0 -49 -5 -103 -58z"/>
 </g>

</svg>